<svg xmlns="http://www.w3.org/2000/svg" xmlns:xlink="http://www.w3.org/1999/xlink" width="1920" zoomAndPan="magnify" viewBox="0 0 1440 809.999993" height="1080" preserveAspectRatio="xMidYMid meet" version="1.0"><defs><g/><clipPath id="7f6b865070"><rect x="0" width="1209" y="0" height="270"/></clipPath></defs><g transform="matrix(1, 0, 0, 1, 103, 265)"><g clip-path="url(#7f6b865070)"><g fill="#5ce1e6" fill-opacity="1"><g transform="translate(4.527787, 105.944147)"><g><path d="M 31.585938 -34.988281 L 26.769531 1.890625 L -2.023438 1.890625 L 11.882812 -104.4375 L 48.90625 -104.4375 C 53.394531 -104.4375 57.8125 -104.078125 62.164062 -103.359375 C 66.679688 -102.617188 70.714844 -101.074219 74.269531 -98.734375 C 77.9375 -96.320312 80.65625 -92.796875 82.421875 -88.167969 C 84.160156 -83.617188 84.523438 -77.632812 83.515625 -70.214844 L 83.121094 -67.320312 C 82.121094 -59.945312 80.164062 -53.992188 77.25 -49.460938 C 74.324219 -44.90625 70.796875 -41.457031 66.667969 -39.113281 C 62.617188 -36.8125 58.269531 -35.269531 53.625 -34.488281 C 49.09375 -33.726562 44.585938 -33.34375 40.097656 -33.34375 L 29.710938 -33.34375 L 29.710938 -35.234375 Z M 28.054688 -37.125 L 40.097656 -37.125 C 44.375 -37.125 48.675781 -37.488281 52.996094 -38.214844 C 57.203125 -38.921875 61.140625 -40.316406 64.800781 -42.398438 C 68.386719 -44.4375 71.476562 -47.472656 74.070312 -51.507812 C 76.679688 -55.566406 78.449219 -61.007812 79.375 -67.832031 L 79.769531 -70.722656 C 80.691406 -77.503906 80.398438 -82.871094 78.890625 -86.820312 C 77.414062 -90.691406 75.179688 -93.609375 72.191406 -95.578125 C 69.082031 -97.621094 65.535156 -98.972656 61.550781 -99.628906 C 57.398438 -100.316406 53.1875 -100.65625 48.90625 -100.65625 L 13.542969 -100.65625 L 13.542969 -102.546875 L 15.414062 -102.300781 L 2.003906 0.246094 L 0.132812 0 L 0.132812 -1.890625 L 25.109375 -1.890625 L 25.109375 0 L 23.238281 -0.246094 L 27.839844 -35.480469 Z M 32.472656 -58.683594 L 43.910156 -58.683594 C 45.363281 -58.683594 46.863281 -58.957031 48.414062 -59.5 C 49.839844 -60 51.121094 -60.925781 52.257812 -62.28125 C 53.359375 -63.597656 54.023438 -65.632812 54.253906 -68.390625 L 54.386719 -69.851562 C 54.699219 -72.726562 54.507812 -74.800781 53.816406 -76.078125 C 53.171875 -77.269531 52.332031 -78.050781 51.300781 -78.414062 C 50.015625 -78.867188 48.648438 -79.097656 47.199219 -79.097656 L 35.761719 -79.097656 L 35.761719 -80.984375 L 37.632812 -80.730469 L 34.347656 -56.539062 L 32.472656 -56.796875 Z M 30.308594 -54.90625 L 34.109375 -82.875 L 47.199219 -82.875 C 49.078125 -82.875 50.867188 -82.578125 52.558594 -81.980469 C 54.507812 -81.292969 56.035156 -79.921875 57.144531 -77.875 C 58.207031 -75.910156 58.542969 -73.121094 58.152344 -69.507812 L 58.019531 -68.078125 C 57.726562 -64.523438 56.769531 -61.78125 55.15625 -59.855469 C 53.574219 -57.96875 51.742188 -56.660156 49.664062 -55.933594 C 47.707031 -55.246094 45.789062 -54.90625 43.910156 -54.90625 Z M 30.308594 -54.90625 "/></g></g></g><g fill="#5ce1e6" fill-opacity="1"><g transform="translate(92.876188, 105.944147)"><g><path d="M 32.605469 -104.4375 L 68.484375 -104.4375 L 79.933594 1.890625 L 49.390625 1.890625 L 47.679688 -20.628906 L 49.5625 -20.773438 L 49.5625 -18.882812 L 28.265625 -18.882812 L 28.265625 -20.773438 L 30.066406 -20.191406 L 22.9375 1.890625 L -7.972656 1.890625 L 31.289062 -104.4375 Z M 32.605469 -100.65625 L 32.605469 -102.546875 L 34.378906 -101.890625 L -3.484375 0.65625 L -5.257812 0 L -5.257812 -1.890625 L 21.5625 -1.890625 L 21.5625 0 L 19.761719 -0.582031 L 26.890625 -22.664062 L 51.316406 -22.664062 L 53.027344 -0.144531 L 51.140625 0 L 51.140625 -1.890625 L 77.832031 -1.890625 L 77.832031 0 L 75.953125 0.203125 L 64.90625 -102.34375 L 66.785156 -102.546875 L 66.785156 -100.65625 Z M 47.675781 -73.027344 L 37.289062 -41.738281 L 35.496094 -42.332031 L 35.496094 -44.222656 L 48.117188 -44.222656 L 48.117188 -42.332031 L 46.234375 -42.199219 L 43.996094 -73.488281 L 45.882812 -73.625 Z M 44.089844 -74.21875 L 47.769531 -73.757812 L 50.148438 -40.445312 L 32.878906 -40.445312 Z M 44.089844 -74.21875 "/></g></g></g><g fill="#5ce1e6" fill-opacity="1"><g transform="translate(182.144858, 105.944147)"><g><path d="M 53.378906 1.890625 L 17.496094 1.890625 L 6.046875 -104.4375 L 36.601562 -104.4375 L 41.851562 -29.054688 L 39.96875 -28.921875 L 38.171875 -29.519531 L 63.058594 -104.4375 L 93.953125 -104.4375 L 54.695312 1.890625 Z M 53.378906 -1.890625 L 53.378906 0 L 51.605469 -0.65625 L 89.46875 -103.203125 L 91.242188 -102.546875 L 91.242188 -100.65625 L 64.421875 -100.65625 L 64.421875 -102.546875 L 66.214844 -101.953125 L 41.761719 -28.328125 L 38.082031 -28.792969 L 32.953125 -102.414062 L 34.839844 -102.546875 L 34.839844 -100.65625 L 8.152344 -100.65625 L 8.152344 -102.546875 L 10.03125 -102.75 L 21.074219 -0.203125 L 19.195312 0 L 19.195312 -1.890625 Z M 53.378906 -1.890625 "/></g></g></g><g fill="#5ce1e6" fill-opacity="1"><g transform="translate(271.413529, 105.944147)"><g><path d="M 32.605469 -104.4375 L 68.484375 -104.4375 L 79.933594 1.890625 L 49.390625 1.890625 L 47.679688 -20.628906 L 49.5625 -20.773438 L 49.5625 -18.882812 L 28.265625 -18.882812 L 28.265625 -20.773438 L 30.066406 -20.191406 L 22.9375 1.890625 L -7.972656 1.890625 L 31.289062 -104.4375 Z M 32.605469 -100.65625 L 32.605469 -102.546875 L 34.378906 -101.890625 L -3.484375 0.65625 L -5.257812 0 L -5.257812 -1.890625 L 21.5625 -1.890625 L 21.5625 0 L 19.761719 -0.582031 L 26.890625 -22.664062 L 51.316406 -22.664062 L 53.027344 -0.144531 L 51.140625 0 L 51.140625 -1.890625 L 77.832031 -1.890625 L 77.832031 0 L 75.953125 0.203125 L 64.90625 -102.34375 L 66.785156 -102.546875 L 66.785156 -100.65625 Z M 47.675781 -73.027344 L 37.289062 -41.738281 L 35.496094 -42.332031 L 35.496094 -44.222656 L 48.117188 -44.222656 L 48.117188 -42.332031 L 46.234375 -42.199219 L 43.996094 -73.488281 L 45.882812 -73.625 Z M 44.089844 -74.21875 L 47.769531 -73.757812 L 50.148438 -40.445312 L 32.878906 -40.445312 Z M 44.089844 -74.21875 "/></g></g></g><g fill="#5ce1e6" fill-opacity="1"><g transform="translate(366.729838, 105.944147)"><g><path d="M 92.984375 -102.300781 L 79.359375 1.890625 L 50.089844 1.890625 L 28.726562 -55.875 L 30.5 -56.53125 L 32.382812 -56.34375 L 30.40625 -36.597656 L 25.457031 1.890625 L -2.023438 1.890625 L 11.882812 -104.4375 L 41.152344 -104.4375 L 62.511719 -46.671875 L 60.738281 -46.015625 L 58.859375 -46.191406 L 60.703125 -65.945312 L 65.789062 -104.4375 L 93.261719 -104.4375 Z M 89.234375 -102.792969 L 91.109375 -102.546875 L 91.109375 -100.65625 L 67.445312 -100.65625 L 67.445312 -102.546875 L 69.316406 -102.300781 L 64.453125 -65.488281 L 62.578125 -65.734375 L 64.460938 -65.558594 L 62.621094 -45.839844 L 58.964844 -45.359375 L 38.0625 -101.890625 L 39.835938 -102.546875 L 39.835938 -100.65625 L 13.542969 -100.65625 L 13.542969 -102.546875 L 15.414062 -102.300781 L 2.003906 0.246094 L 0.132812 0 L 0.132812 -1.890625 L 23.796875 -1.890625 L 23.796875 0 L 21.921875 -0.242188 L 26.65625 -37.054688 L 28.527344 -36.8125 L 26.648438 -37 L 28.621094 -56.71875 L 32.273438 -57.1875 L 53.175781 -0.65625 L 51.40625 0 L 51.40625 -1.890625 L 77.699219 -1.890625 L 77.699219 0 L 75.824219 -0.246094 Z M 89.234375 -102.792969 "/></g></g></g><g fill="#5ce1e6" fill-opacity="1"><g transform="translate(467.304933, 105.944147)"><g><path d="M 32.472656 -58.683594 L 43.910156 -58.683594 C 45.363281 -58.683594 46.863281 -58.957031 48.414062 -59.5 C 49.839844 -60 51.121094 -60.925781 52.257812 -62.28125 C 53.359375 -63.597656 54.023438 -65.632812 54.253906 -68.390625 L 54.386719 -69.851562 C 54.699219 -72.726562 54.507812 -74.800781 53.816406 -76.078125 C 53.171875 -77.269531 52.332031 -78.050781 51.300781 -78.414062 C 50.015625 -78.867188 48.648438 -79.097656 47.199219 -79.097656 L 35.761719 -79.097656 L 35.761719 -80.984375 L 37.632812 -80.730469 L 34.347656 -56.539062 L 32.472656 -56.796875 Z M 30.308594 -54.90625 L 34.109375 -82.875 L 47.199219 -82.875 C 49.078125 -82.875 50.867188 -82.578125 52.558594 -81.980469 C 54.507812 -81.292969 56.035156 -79.921875 57.144531 -77.875 C 58.207031 -75.910156 58.542969 -73.121094 58.152344 -69.507812 L 58.019531 -68.078125 C 57.726562 -64.523438 56.769531 -61.78125 55.15625 -59.855469 C 53.574219 -57.96875 51.742188 -56.660156 49.664062 -55.933594 C 47.707031 -55.246094 45.789062 -54.90625 43.910156 -54.90625 Z M 31.585938 -34.988281 L 26.769531 1.890625 L -2.023438 1.890625 L 11.882812 -104.4375 L 48.90625 -104.4375 C 53.394531 -104.4375 57.8125 -104.078125 62.164062 -103.359375 C 66.679688 -102.617188 70.714844 -101.074219 74.269531 -98.734375 C 77.9375 -96.320312 80.65625 -92.796875 82.421875 -88.167969 C 84.160156 -83.617188 84.523438 -77.632812 83.515625 -70.214844 L 83.121094 -67.320312 C 81.933594 -58.648438 79.433594 -51.9375 75.621094 -47.195312 C 71.828125 -42.476562 67.375 -39.046875 62.257812 -36.910156 L 61.527344 -38.652344 L 63.347656 -39.164062 L 74.9375 1.890625 L 44.011719 1.890625 L 34.847656 -34.777344 L 36.679688 -35.234375 L 36.679688 -33.34375 L 29.710938 -33.34375 L 29.710938 -35.234375 Z M 28.054688 -37.125 L 38.15625 -37.125 L 47.324219 -0.457031 L 45.488281 0 L 45.488281 -1.890625 L 72.441406 -1.890625 L 72.441406 0 L 70.621094 0.511719 L 59.253906 -39.75 L 60.800781 -40.394531 C 65.324219 -42.289062 69.285156 -45.34375 72.675781 -49.566406 C 76.050781 -53.761719 78.285156 -59.851562 79.375 -67.832031 L 79.769531 -70.722656 C 80.691406 -77.503906 80.398438 -82.871094 78.890625 -86.820312 C 77.414062 -90.691406 75.179688 -93.609375 72.191406 -95.578125 C 69.082031 -97.621094 65.535156 -98.972656 61.550781 -99.628906 C 57.398438 -100.316406 53.1875 -100.65625 48.90625 -100.65625 L 13.542969 -100.65625 L 13.542969 -102.546875 L 15.414062 -102.300781 L 2.003906 0.246094 L 0.132812 0 L 0.132812 -1.890625 L 25.109375 -1.890625 L 25.109375 0 L 23.238281 -0.246094 L 27.839844 -35.480469 Z M 28.054688 -37.125 "/></g></g></g><g fill="#5ce1e6" fill-opacity="1"><g transform="translate(559.3345, 105.944147)"><g><path d="M 32.605469 -104.4375 L 68.484375 -104.4375 L 79.933594 1.890625 L 49.390625 1.890625 L 47.679688 -20.628906 L 49.5625 -20.773438 L 49.5625 -18.882812 L 28.265625 -18.882812 L 28.265625 -20.773438 L 30.066406 -20.191406 L 22.9375 1.890625 L -7.972656 1.890625 L 31.289062 -104.4375 Z M 32.605469 -100.65625 L 32.605469 -102.546875 L 34.378906 -101.890625 L -3.484375 0.65625 L -5.257812 0 L -5.257812 -1.890625 L 21.5625 -1.890625 L 21.5625 0 L 19.761719 -0.582031 L 26.890625 -22.664062 L 51.316406 -22.664062 L 53.027344 -0.144531 L 51.140625 0 L 51.140625 -1.890625 L 77.832031 -1.890625 L 77.832031 0 L 75.953125 0.203125 L 64.90625 -102.34375 L 66.785156 -102.546875 L 66.785156 -100.65625 Z M 47.675781 -73.027344 L 37.289062 -41.738281 L 35.496094 -42.332031 L 35.496094 -44.222656 L 48.117188 -44.222656 L 48.117188 -42.332031 L 46.234375 -42.199219 L 43.996094 -73.488281 L 45.882812 -73.625 Z M 44.089844 -74.21875 L 47.769531 -73.757812 L 50.148438 -40.445312 L 32.878906 -40.445312 Z M 44.089844 -74.21875 "/></g></g></g><g fill="#5ce1e6" fill-opacity="1"><g transform="translate(654.650809, 105.944147)"><g><path d="M 48.382812 -104.4375 L 75.515625 -104.4375 L 65.898438 -31.042969 C 64.441406 -20.113281 60.789062 -11.609375 54.9375 -5.527344 C 49 0.644531 40.152344 3.730469 28.398438 3.730469 C 20.164062 3.730469 13.710938 2.351562 9.03125 -0.410156 C 4.21875 -3.25 1.019531 -7.40625 -0.566406 -12.882812 C -2.085938 -18.128906 -2.390625 -24.429688 -1.480469 -31.785156 L -0.734375 -37.386719 L 26.71875 -37.386719 L 26.460938 -35.269531 C 25.871094 -30.375 25.800781 -26.660156 26.25 -24.125 C 26.402344 -23.25 26.730469 -22.621094 27.230469 -22.242188 C 27.777344 -21.820312 28.605469 -21.609375 29.710938 -21.609375 C 32.03125 -21.609375 33.710938 -22.574219 34.757812 -24.5 C 36.046875 -26.882812 36.988281 -30.195312 37.570312 -34.4375 L 46.722656 -104.4375 Z M 48.382812 -100.65625 L 48.382812 -102.546875 L 50.253906 -102.300781 L 41.3125 -33.925781 C 40.667969 -29.226562 39.589844 -25.484375 38.078125 -22.699219 C 36.320312 -19.453125 33.53125 -17.832031 29.710938 -17.832031 C 27.75 -17.832031 26.15625 -18.300781 24.933594 -19.238281 C 23.65625 -20.214844 22.851562 -21.625 22.527344 -23.464844 C 22.011719 -26.367188 22.074219 -30.453125 22.707031 -35.722656 L 24.585938 -35.496094 L 24.585938 -33.605469 L 0.921875 -33.605469 L 0.921875 -35.496094 L 2.792969 -35.246094 L 2.269531 -31.320312 C 1.425781 -24.476562 1.691406 -18.683594 3.0625 -13.933594 C 4.371094 -9.421875 7 -5.996094 10.953125 -3.664062 C 15.039062 -1.253906 20.851562 -0.0507812 28.398438 -0.0507812 C 39.082031 -0.0507812 47.019531 -2.75 52.210938 -8.148438 C 57.492188 -13.632812 60.804688 -21.429688 62.152344 -31.535156 L 71.488281 -102.792969 L 73.359375 -102.546875 L 73.359375 -100.65625 Z M 48.382812 -100.65625 "/></g></g></g><g fill="#5ce1e6" fill-opacity="1"><g transform="translate(539.159942, 236.017051)"><g><path d="M 40.757812 3.730469 C 31.210938 3.730469 23.289062 1.890625 16.992188 -1.785156 C 10.570312 -5.535156 6.105469 -11.34375 3.589844 -19.210938 C 1.136719 -26.886719 0.71875 -36.78125 2.332031 -48.894531 L 2.992188 -53.886719 C 5.410156 -72.078125 10.480469 -85.332031 18.203125 -93.644531 C 26.027344 -102.066406 37.09375 -106.277344 51.40625 -106.277344 C 64.449219 -106.277344 74.179688 -103.164062 80.59375 -96.933594 C 87.09375 -90.625 89.515625 -80.976562 87.855469 -67.992188 L 86.988281 -61.214844 L 58.1875 -61.214844 L 58.472656 -63.355469 C 59.222656 -69.027344 59.050781 -73.523438 57.957031 -76.84375 C 57.515625 -78.191406 56.734375 -79.195312 55.621094 -79.851562 C 54.394531 -80.574219 52.726562 -80.9375 50.617188 -80.9375 L 49.171875 -80.9375 C 45.558594 -80.9375 42.6875 -79.90625 40.554688 -77.851562 C 38.289062 -75.664062 36.523438 -72.554688 35.261719 -68.523438 C 33.9375 -64.289062 32.886719 -59.246094 32.113281 -53.390625 L 31.453125 -48.398438 C 30.351562 -39.734375 30.570312 -32.949219 32.105469 -28.042969 C 32.785156 -25.886719 33.914062 -24.285156 35.503906 -23.238281 C 37.148438 -22.152344 39.335938 -21.609375 42.070312 -21.609375 L 43.515625 -21.609375 C 45.292969 -21.609375 47.179688 -21.855469 49.179688 -22.34375 C 51.175781 -22.832031 52.757812 -23.390625 53.933594 -24.019531 L 54.824219 -22.351562 L 52.949219 -22.59375 L 54.65625 -35.742188 L 56.53125 -35.496094 L 56.53125 -33.605469 L 42.011719 -33.605469 L 45.414062 -58.949219 L 86.558594 -58.949219 L 80 -9.253906 L 79.40625 -8.777344 C 76.691406 -6.609375 73.625 -4.578125 70.199219 -2.683594 C 66.722656 -0.761719 62.605469 0.785156 57.839844 1.964844 C 53.089844 3.140625 47.394531 3.730469 40.757812 3.730469 Z M 40.757812 -0.0507812 C 47.089844 -0.0507812 52.480469 -0.601562 56.933594 -1.703125 C 61.371094 -2.800781 65.1875 -4.234375 68.371094 -5.992188 C 71.609375 -7.78125 74.5 -9.695312 77.042969 -11.730469 L 78.226562 -10.253906 L 76.351562 -10.503906 L 82.53125 -57.304688 L 84.402344 -57.058594 L 84.402344 -55.167969 L 47.066406 -55.167969 L 47.066406 -57.058594 L 48.941406 -56.808594 L 46.046875 -35.246094 L 44.175781 -35.496094 L 44.175781 -37.386719 L 58.683594 -37.386719 L 56.570312 -21.140625 L 55.710938 -20.683594 C 54.257812 -19.90625 52.378906 -19.238281 50.078125 -18.671875 C 47.785156 -18.113281 45.597656 -17.832031 43.515625 -17.832031 L 42.070312 -17.832031 C 38.582031 -17.832031 35.699219 -18.582031 33.421875 -20.082031 C 31.085938 -21.621094 29.445312 -23.898438 28.5 -26.910156 C 26.796875 -32.347656 26.53125 -39.671875 27.707031 -48.890625 L 28.363281 -53.886719 C 29.167969 -59.957031 30.265625 -65.210938 31.65625 -69.652344 C 33.109375 -74.296875 35.203125 -77.9375 37.929688 -80.570312 C 40.796875 -83.335938 44.542969 -84.714844 49.171875 -84.714844 L 50.617188 -84.714844 C 53.414062 -84.714844 55.722656 -84.179688 57.542969 -83.105469 C 59.472656 -81.96875 60.808594 -80.273438 61.546875 -78.027344 C 62.820312 -74.160156 63.046875 -69.105469 62.21875 -62.859375 L 60.34375 -63.105469 L 60.34375 -64.996094 L 85.324219 -64.996094 L 85.324219 -63.105469 L 83.449219 -63.347656 L 84.105469 -68.472656 C 85.605469 -80.207031 83.554688 -88.789062 77.960938 -94.222656 C 72.277344 -99.738281 63.425781 -102.496094 51.40625 -102.496094 C 38.195312 -102.496094 28.050781 -98.6875 20.972656 -91.070312 C 13.796875 -83.347656 9.050781 -70.785156 6.738281 -53.394531 L 6.082031 -48.394531 C 4.539062 -36.84375 4.910156 -27.5 7.191406 -20.363281 C 9.410156 -13.417969 13.3125 -8.3125 18.898438 -5.050781 C 24.609375 -1.714844 31.894531 -0.0507812 40.757812 -0.0507812 Z M 40.757812 -0.0507812 "/></g></g></g><g fill="#5ce1e6" fill-opacity="1"><g transform="translate(638.42034, 236.017051)"><g><path d="M 63.5 -104.4375 L 90.632812 -104.4375 L 76.730469 1.890625 L 47.9375 1.890625 L 53.605469 -41.789062 L 55.480469 -41.542969 L 55.480469 -39.65625 L 30.5 -39.65625 L 30.5 -41.542969 L 32.375 -41.300781 L 26.773438 1.890625 L -2.023438 1.890625 L 11.882812 -104.4375 L 40.671875 -104.4375 L 35.269531 -62.863281 L 33.394531 -63.105469 L 33.394531 -64.996094 L 58.371094 -64.996094 L 58.371094 -63.105469 L 56.5 -63.347656 L 61.839844 -104.4375 Z M 63.5 -100.65625 L 63.5 -102.546875 L 65.375 -102.304688 L 60.03125 -61.214844 L 31.242188 -61.214844 L 36.648438 -102.789062 L 38.519531 -102.546875 L 38.519531 -100.65625 L 13.542969 -100.65625 L 13.542969 -102.546875 L 15.414062 -102.300781 L 2.003906 0.246094 L 0.132812 0 L 0.132812 -1.890625 L 25.109375 -1.890625 L 25.109375 0 L 23.238281 -0.242188 L 28.839844 -43.433594 L 57.632812 -43.433594 L 51.964844 0.242188 L 50.089844 0 L 50.089844 -1.890625 L 75.070312 -1.890625 L 75.070312 0 L 73.195312 -0.246094 L 86.605469 -102.792969 L 88.480469 -102.546875 L 88.480469 -100.65625 Z M 63.5 -100.65625 "/></g></g></g><g fill="#5ce1e6" fill-opacity="1"><g transform="translate(736.366042, 236.017051)"><g><path d="M 32.605469 -104.4375 L 68.484375 -104.4375 L 79.933594 1.890625 L 49.390625 1.890625 L 47.679688 -20.628906 L 49.5625 -20.773438 L 49.5625 -18.882812 L 28.265625 -18.882812 L 28.265625 -20.773438 L 30.066406 -20.191406 L 22.9375 1.890625 L -7.972656 1.890625 L 31.289062 -104.4375 Z M 32.605469 -100.65625 L 32.605469 -102.546875 L 34.378906 -101.890625 L -3.484375 0.65625 L -5.257812 0 L -5.257812 -1.890625 L 21.5625 -1.890625 L 21.5625 0 L 19.761719 -0.582031 L 26.890625 -22.664062 L 51.316406 -22.664062 L 53.027344 -0.144531 L 51.140625 0 L 51.140625 -1.890625 L 77.832031 -1.890625 L 77.832031 0 L 75.953125 0.203125 L 64.90625 -102.34375 L 66.785156 -102.546875 L 66.785156 -100.65625 Z M 47.675781 -73.027344 L 37.289062 -41.738281 L 35.496094 -42.332031 L 35.496094 -44.222656 L 48.117188 -44.222656 L 48.117188 -42.332031 L 46.234375 -42.199219 L 43.996094 -73.488281 L 45.882812 -73.625 Z M 44.089844 -74.21875 L 47.769531 -73.757812 L 50.148438 -40.445312 L 32.878906 -40.445312 Z M 44.089844 -74.21875 "/></g></g></g><g fill="#5ce1e6" fill-opacity="1"><g transform="translate(831.682351, 236.017051)"><g><path d="M 86.144531 -53.65625 L 85.488281 -48.660156 C 83.882812 -36.605469 81.164062 -26.910156 77.335938 -19.570312 C 73.417969 -12.054688 67.894531 -6.585938 60.769531 -3.160156 C 53.761719 0.207031 44.722656 1.890625 33.65625 1.890625 L -2.023438 1.890625 L 11.882812 -104.4375 L 45.75 -104.4375 C 56.835938 -104.4375 65.601562 -102.789062 72.050781 -99.496094 C 78.714844 -96.09375 83.15625 -90.558594 85.367188 -82.890625 C 87.5 -75.492188 87.757812 -65.746094 86.144531 -53.652344 Z M 82.398438 -54.152344 C 83.941406 -65.722656 83.71875 -74.953125 81.734375 -81.84375 C 79.824219 -88.460938 76.023438 -93.222656 70.332031 -96.128906 C 64.421875 -99.148438 56.230469 -100.65625 45.75 -100.65625 L 13.542969 -100.65625 L 13.542969 -102.546875 L 15.414062 -102.300781 L 2.003906 0.246094 L 0.132812 0 L 0.132812 -1.890625 L 33.65625 -1.890625 C 44.148438 -1.890625 52.640625 -3.449219 59.132812 -6.566406 C 65.503906 -9.628906 70.453125 -14.546875 73.984375 -21.316406 C 77.609375 -28.265625 80.191406 -37.542969 81.742188 -49.152344 L 82.398438 -54.148438 Z M 27.871094 -23.453125 L 35.101562 -23.453125 C 40.410156 -23.453125 44.433594 -24.390625 47.179688 -26.273438 C 49.90625 -28.144531 51.902344 -30.917969 53.167969 -34.601562 C 54.527344 -38.558594 55.597656 -43.410156 56.367188 -49.160156 L 57.023438 -54.148438 C 57.792969 -59.9375 57.902344 -64.742188 57.355469 -68.558594 C 56.859375 -72.03125 55.460938 -74.644531 53.15625 -76.390625 C 50.777344 -78.195312 46.949219 -79.097656 41.675781 -79.097656 L 35.761719 -79.097656 L 35.761719 -80.984375 L 37.632812 -80.738281 L 29.746094 -21.3125 L 27.871094 -21.5625 Z M 25.714844 -19.671875 L 34.105469 -82.875 L 41.675781 -82.875 C 47.796875 -82.875 52.382812 -81.71875 55.4375 -79.402344 C 58.570312 -77.03125 60.457031 -73.59375 61.097656 -69.09375 C 61.691406 -64.933594 61.585938 -59.789062 60.773438 -53.65625 L 60.113281 -48.65625 C 59.308594 -42.660156 58.183594 -37.5625 56.742188 -33.371094 C 55.203125 -28.902344 52.730469 -25.496094 49.320312 -23.15625 C 45.929688 -20.832031 41.191406 -19.671875 35.101562 -19.671875 Z M 25.714844 -19.671875 "/></g></g></g><g fill="#5ce1e6" fill-opacity="1"><g transform="translate(928.050434, 236.017051)"><g><path d="M 32.605469 -104.4375 L 68.484375 -104.4375 L 79.933594 1.890625 L 49.390625 1.890625 L 47.679688 -20.628906 L 49.5625 -20.773438 L 49.5625 -18.882812 L 28.265625 -18.882812 L 28.265625 -20.773438 L 30.066406 -20.191406 L 22.9375 1.890625 L -7.972656 1.890625 L 31.289062 -104.4375 Z M 32.605469 -100.65625 L 32.605469 -102.546875 L 34.378906 -101.890625 L -3.484375 0.65625 L -5.257812 0 L -5.257812 -1.890625 L 21.5625 -1.890625 L 21.5625 0 L 19.761719 -0.582031 L 26.890625 -22.664062 L 51.316406 -22.664062 L 53.027344 -0.144531 L 51.140625 0 L 51.140625 -1.890625 L 77.832031 -1.890625 L 77.832031 0 L 75.953125 0.203125 L 64.90625 -102.34375 L 66.785156 -102.546875 L 66.785156 -100.65625 Z M 47.675781 -73.027344 L 37.289062 -41.738281 L 35.496094 -42.332031 L 35.496094 -44.222656 L 48.117188 -44.222656 L 48.117188 -42.332031 L 46.234375 -42.199219 L 43.996094 -73.488281 L 45.882812 -73.625 Z M 44.089844 -74.21875 L 47.769531 -73.757812 L 50.148438 -40.445312 L 32.878906 -40.445312 Z M 44.089844 -74.21875 "/></g></g></g><g fill="#5ce1e6" fill-opacity="1"><g transform="translate(1021.789081, 236.017051)"><g><path d="M 40.757812 3.730469 C 31.210938 3.730469 23.289062 1.890625 16.992188 -1.785156 C 10.570312 -5.535156 6.105469 -11.34375 3.589844 -19.210938 C 1.136719 -26.886719 0.71875 -36.78125 2.332031 -48.894531 L 2.992188 -53.886719 C 5.410156 -72.078125 10.480469 -85.332031 18.203125 -93.644531 C 26.027344 -102.066406 37.09375 -106.277344 51.40625 -106.277344 C 64.449219 -106.277344 74.179688 -103.164062 80.59375 -96.933594 C 87.09375 -90.625 89.515625 -80.976562 87.855469 -67.992188 L 86.988281 -61.214844 L 58.1875 -61.214844 L 58.472656 -63.355469 C 59.222656 -69.027344 59.050781 -73.523438 57.957031 -76.84375 C 57.515625 -78.191406 56.734375 -79.195312 55.621094 -79.851562 C 54.394531 -80.574219 52.726562 -80.9375 50.617188 -80.9375 L 49.171875 -80.9375 C 45.558594 -80.9375 42.6875 -79.90625 40.554688 -77.851562 C 38.289062 -75.664062 36.523438 -72.554688 35.261719 -68.523438 C 33.9375 -64.289062 32.886719 -59.246094 32.113281 -53.390625 L 31.453125 -48.398438 C 30.351562 -39.734375 30.570312 -32.949219 32.105469 -28.042969 C 32.785156 -25.886719 33.914062 -24.285156 35.503906 -23.238281 C 37.148438 -22.152344 39.335938 -21.609375 42.070312 -21.609375 L 43.515625 -21.609375 C 45.292969 -21.609375 47.179688 -21.855469 49.179688 -22.34375 C 51.175781 -22.832031 52.757812 -23.390625 53.933594 -24.019531 L 54.824219 -22.351562 L 52.949219 -22.59375 L 54.65625 -35.742188 L 56.53125 -35.496094 L 56.53125 -33.605469 L 42.011719 -33.605469 L 45.414062 -58.949219 L 86.558594 -58.949219 L 80 -9.253906 L 79.40625 -8.777344 C 76.691406 -6.609375 73.625 -4.578125 70.199219 -2.683594 C 66.722656 -0.761719 62.605469 0.785156 57.839844 1.964844 C 53.089844 3.140625 47.394531 3.730469 40.757812 3.730469 Z M 40.757812 -0.0507812 C 47.089844 -0.0507812 52.480469 -0.601562 56.933594 -1.703125 C 61.371094 -2.800781 65.1875 -4.234375 68.371094 -5.992188 C 71.609375 -7.78125 74.5 -9.695312 77.042969 -11.730469 L 78.226562 -10.253906 L 76.351562 -10.503906 L 82.53125 -57.304688 L 84.402344 -57.058594 L 84.402344 -55.167969 L 47.066406 -55.167969 L 47.066406 -57.058594 L 48.941406 -56.808594 L 46.046875 -35.246094 L 44.175781 -35.496094 L 44.175781 -37.386719 L 58.683594 -37.386719 L 56.570312 -21.140625 L 55.710938 -20.683594 C 54.257812 -19.90625 52.378906 -19.238281 50.078125 -18.671875 C 47.785156 -18.113281 45.597656 -17.832031 43.515625 -17.832031 L 42.070312 -17.832031 C 38.582031 -17.832031 35.699219 -18.582031 33.421875 -20.082031 C 31.085938 -21.621094 29.445312 -23.898438 28.5 -26.910156 C 26.796875 -32.347656 26.53125 -39.671875 27.707031 -48.890625 L 28.363281 -53.886719 C 29.167969 -59.957031 30.265625 -65.210938 31.65625 -69.652344 C 33.109375 -74.296875 35.203125 -77.9375 37.929688 -80.570312 C 40.796875 -83.335938 44.542969 -84.714844 49.171875 -84.714844 L 50.617188 -84.714844 C 53.414062 -84.714844 55.722656 -84.179688 57.542969 -83.105469 C 59.472656 -81.96875 60.808594 -80.273438 61.546875 -78.027344 C 62.820312 -74.160156 63.046875 -69.105469 62.21875 -62.859375 L 60.34375 -63.105469 L 60.34375 -64.996094 L 85.324219 -64.996094 L 85.324219 -63.105469 L 83.449219 -63.347656 L 84.105469 -68.472656 C 85.605469 -80.207031 83.554688 -88.789062 77.960938 -94.222656 C 72.277344 -99.738281 63.425781 -102.496094 51.40625 -102.496094 C 38.195312 -102.496094 28.050781 -98.6875 20.972656 -91.070312 C 13.796875 -83.347656 9.050781 -70.785156 6.738281 -53.394531 L 6.082031 -48.394531 C 4.539062 -36.84375 4.910156 -27.5 7.191406 -20.363281 C 9.410156 -13.417969 13.3125 -8.3125 18.898438 -5.050781 C 24.609375 -1.714844 31.894531 -0.0507812 40.757812 -0.0507812 Z M 40.757812 -0.0507812 "/></g></g></g><g fill="#5ce1e6" fill-opacity="1"><g transform="translate(1121.049479, 236.017051)"><g><path d="M 13.542969 -104.4375 L 80.109375 -104.4375 L 76.863281 -79.097656 L 35.761719 -79.097656 L 35.761719 -80.984375 L 37.632812 -80.738281 L 35.265625 -62.859375 L 33.394531 -63.105469 L 33.394531 -64.996094 L 68.421875 -64.996094 L 65.023438 -39.65625 L 30.5 -39.65625 L 30.5 -41.542969 L 32.375 -41.296875 L 29.746094 -21.316406 L 27.871094 -21.5625 L 27.871094 -23.453125 L 69.460938 -23.453125 L 66.214844 1.890625 L -2.023438 1.890625 L 11.882812 -104.4375 Z M 13.542969 -100.65625 L 13.542969 -102.546875 L 15.414062 -102.300781 L 2.003906 0.246094 L 0.132812 0 L 0.132812 -1.890625 L 64.550781 -1.890625 L 64.550781 0 L 62.675781 -0.238281 L 65.4375 -21.800781 L 67.3125 -21.5625 L 67.3125 -19.671875 L 25.714844 -19.671875 L 28.84375 -43.433594 L 63.367188 -43.433594 L 63.367188 -41.542969 L 61.496094 -41.796875 L 64.386719 -63.355469 L 66.261719 -63.105469 L 66.261719 -61.214844 L 31.238281 -61.214844 L 34.105469 -82.875 L 75.199219 -82.875 L 75.199219 -80.984375 L 73.328125 -81.226562 L 76.085938 -102.785156 L 77.960938 -102.546875 L 77.960938 -100.65625 Z M 13.542969 -100.65625 "/></g></g></g></g></g></svg>